<?xml version="1.0" encoding="utf-8"?>
<!-- Generator: Adobe Illustrator 25.2.0, SVG Export Plug-In . SVG Version: 6.00 Build 0)  -->
<svg version="1.1" id="Layer_1" xmlns="http://www.w3.org/2000/svg" xmlns:xlink="http://www.w3.org/1999/xlink" x="0px" y="0px"
	 viewBox="0 0 637 305" style="enable-background:new 0 0 637 305;" xml:space="preserve">
<style type="text/css">
	.st0{opacity:0.15;}
	.st1{fill:none;stroke:#19D5E6;stroke-width:35;stroke-linecap:round;stroke-miterlimit:10;}
	.st2{fill:none;stroke:#19D5E6;stroke-width:6;stroke-linecap:round;stroke-miterlimit:10;}
	.st3{fill:none;stroke:#FFFFFF;stroke-linecap:round;stroke-miterlimit:10;}
</style>
<g class="st0">
	<g>
		<g>
			<path class="st1" d="M202.5,232.5c22.3-22,27.5-30.9,26-34c-7.9-16.6-54.3,2.6-53,34c0.5,12.5,10.4,26.3,22,28
				c15.8,2.4,37.3-17.2,43-52"/>
		</g>
	</g>
</g>
<g class="st0">
	<g>
		<g>
			<path class="st1" d="M198.5,17.5c44.2,88,58.4,166.6,59,232c0,3,0,6,0,9"/>
		</g>
	</g>
</g>
<g class="st0">
	<g>
		<g>
			<path class="st1" d="M317.5,175.5c-20,4.1-34.6,20.3-36,39c-1.3,17.6,8.7,39.7,29,43c18.4,3,38.1-10.6,42-32"/>
		</g>
	</g>
</g>
<g class="st0">
	<g>
		<g>
			<path class="st1" d="M570.3,232.7c31.2-28.1,30.8-31.3,28.9-33.9c-4.1-5.9-48.3,2.5-47.6,26.4c0.4,12.9,15.7,28.4,34.3,27.3
				c17.4-1,31.7-16.2,31.3-34.6"/>
		</g>
	</g>
</g>
<path class="st2" d="M202.5,233.5c22.3-22,27.5-30.9,26-34c-7.9-16.6-54.3,2.6-53,34c0.5,12.5,10.4,26.3,22,28
	c15.8,2.4,37.3-17.2,43-52"/>
<path class="st2" d="M198.5,18.5c44.2,88,58.4,166.6,59,232c0,3,0,6,0,9"/>
<path class="st2" d="M317.5,176.5c-20,4.1-34.6,20.3-36,39c-1.3,17.6,8.7,39.7,29,43c18.4,3,38.1-10.6,42-32"/>
<path class="st2" d="M570.3,233.7c31.2-28.1,30.8-31.3,28.9-33.9c-4.1-5.9-48.3,2.5-47.6,26.4c0.4,12.9,15.7,28.4,34.3,27.3
	c17.4-1,31.7-16.2,31.3-34.6"/>
<path class="st3" d="M202.5,233.5c22.3-22,27.5-30.9,26-34c-7.9-16.6-54.3,2.6-53,34c0.5,12.5,10.4,26.3,22,28
	c15.8,2.4,37.3-17.2,43-52"/>
<path class="st3" d="M198.5,18.5c44.2,88,58.4,166.6,59,232c0,3,0,6,0,9"/>
<path class="st3" d="M317.5,176.5c-20,4.1-34.6,20.3-36,39c-1.3,17.6,8.7,39.7,29,43c18.4,3,38.1-10.6,42-32"/>
<path class="st3" d="M570.3,233.7c31.2-28.1,30.8-31.3,28.9-33.9c-4.1-5.9-48.3,2.5-47.6,26.4c0.4,12.9,15.7,28.4,34.3,27.3
	c17.4-1,31.7-16.2,31.3-34.6"/>
<g class="st0">
	<g>
		<g>
			<path class="st1" d="M460.5,260.5c2.3-78.1,7.4-95.7,12-96c6-0.4,10.7,29,21,29c11.1,0.1,15.6-33.9,24-34
				c6.8-0.1,14.8,22.2,24,87"/>
		</g>
	</g>
</g>
<path class="st2" d="M460.5,261.5c2.3-78.1,7.4-95.7,12-96c6-0.4,10.7,29,21,29c11.1,0.1,15.6-33.9,24-34c6.8-0.1,14.8,22.2,24,87"
	/>
<path class="st3" d="M460.5,261.5c2.3-78.1,7.4-95.7,12-96c6-0.4,10.7,29,21,29c11.1,0.1,15.6-33.9,24-34c6.8-0.1,14.8,22.2,24,87"
	/>
<g class="st0">
	<g>
		<g>
			<path class="st1" d="M377.5,194.5c15.5-13.3,36.3-15.8,50-7c22,14.1,19.7,52.8,2,66c-19,14.1-57.7,0-66-27
				c-7.2-23.4,11.9-44.8,13-46"/>
		</g>
	</g>
</g>
<path class="st2" d="M377.5,195.5c15.5-13.3,36.3-15.8,50-7c22,14.1,19.7,52.8,2,66c-19,14.1-57.7,0-66-27
	c-7.2-23.4,11.9-44.8,13-46"/>
<path class="st3" d="M377.5,195.5c15.5-13.3,36.3-15.8,50-7c22,14.1,19.7,52.8,2,66c-19,14.1-57.7,0-66-27
	c-7.2-23.4,11.9-44.8,13-46"/>
<g id="w">
	<g class="st0">
		<g>
			<g>
				<path class="st1" d="M17.5,56.5c29,33,25.4,157.4,26,200c0.1,5.5,0.4,30.4,5,31c11.4,1.4,39-146,50-148
					c16.8-3.1,47.4,122.4,60,121c8.3-0.9,12.1-56,4-230"/>
			</g>
		</g>
	</g>
	<path class="st2" d="M17.5,57.5c29,33,25.4,157.4,26,200c0.1,5.5,0.4,30.4,5,31c11.4,1.4,39-146,50-148c16.8-3.1,47.4,122.4,60,121
		c8.3-0.9,12.1-56,4-230"/>
	<path class="st3" d="M17.5,57.5c29,33,25.4,157.4,26,200c0.1,5.5,0.4,30.4,5,31c11.4,1.4,39-146,50-148c16.8-3.1,47.4,122.4,60,121
		c8.3-0.9,12.1-56,4-230"/>
</g>
</svg>
