<svg xmlns="http://www.w3.org/2000/svg" viewBox="0 0 145.69 145.681"><defs><style>.cls-1{fill:#424242;}</style></defs><g id="Layer_2" data-name="Layer 2"><g id="Layer_1-2" data-name="Layer 1"><path class="cls-1" d="M0,94.39V44.636a5.816,5.816,0,0,1,2.259-2.669c1.494-1,2.993-1.993,4.532-2.919,13.092-7.88,26.216-15.707,39.284-23.626C54.449,10.348,62.746,5.145,71.077,0H74.2c2.572,1.318,5.092,2.726,7.54,4.264,20.218,12.7,40.523,25.263,61.1,37.383a5.342,5.342,0,0,1,2.839,5.014q-.021,23.454.011,46.907a4.2,4.2,0,0,1-1.417,3.264,36.215,36.215,0,0,1-4.369,3.4c-21.425,14.662-42.865,29.3-64.019,44.355-2.2,1.566-4.308,1.445-6.668-.36-8.359-6.394-17.058-12.3-25.757-18.216-11.911-8.1-24.047-15.863-35.6-24.479A37.213,37.213,0,0,1,0,94.39ZM68.123,31.32c0-5.635-.023-11.269.018-16.9.01-1.269-.3-1.367-1.33-.732-4.953,3.061-9.934,6.078-14.908,9.1Q33.342,34.085,14.78,45.38c-1.5.91-1.5,1.014-.12,1.975q12.7,8.847,25.4,17.7a1.9,1.9,0,0,0,2.424.076q12.195-7.551,24.443-15.018a2.241,2.241,0,0,0,1.215-2.178C68.1,42.4,68.123,36.859,68.123,31.32Zm9.711-18.14c-.6.351-.382.924-.383,1.386-.012,11.032.011,22.064-.037,33.1a2.664,2.664,0,0,0,1.51,2.589q11.982,7.219,23.9,14.552A2.474,2.474,0,0,0,106,64.742c8.246-5.805,16.54-11.541,24.817-17.3,1.488-1.036,1.488-1.142-.031-2.068Q104.759,29.528,78.734,13.693C78.453,13.522,78.163,13.367,77.834,13.18Zm-.392,100.8q0,8.243.009,16.486c0,.4-.226.963.212,1.174.414.2.752-.283,1.088-.517q26.073-18.135,52.138-36.282c1.428-.994,1.427-1.066-.059-1.971-8.251-5.028-16.515-10.035-24.746-15.095a1.987,1.987,0,0,0-2.544.11Q91.146,86.568,78.689,95.161a2.655,2.655,0,0,0-1.268,2.475C77.467,103.084,77.442,108.532,77.442,113.979Zm-9.319,17.776v-1.411c0-10.846-.021-21.693.029-32.54a3.01,3.01,0,0,0-1.483-2.794Q54.447,86.58,42.3,78.037a2.444,2.444,0,0,0-3.158-.063c-8.061,4.973-16.165,9.876-24.255,14.8-1.686,1.027-1.689,1.035,0,2.208q25.657,17.853,51.322,35.7A5.183,5.183,0,0,0,68.123,131.755ZM95.512,71.588c-.2-.442-.7-.645-1.127-.907-6.023-3.671-12.157-7.176-18.03-11.073-2.627-1.742-4.489-1.761-7.131,0-5.946,3.956-12.163,7.507-18.268,11.225-.683.416-1.44.781-.283,1.584q10.621,7.364,21.211,14.773a1.369,1.369,0,0,0,1.8.01q10.593-7.4,21.208-14.779C95.152,72.233,95.469,72.077,95.512,71.588ZM9.284,55.122c-.037.7-.073,1.071-.073,1.443q-.006,13.356,0,26.712c0,1.654.085,1.7,1.549.829q10.134-6.028,20.26-12.069c1.355-.807,1.354-.854.065-1.751Q22.632,64.4,14.173,58.522ZM136.356,70.167q0-6.744,0-13.486c0-.365.152-.831-.2-1.064-.46-.3-.786.161-1.111.387q-10.2,7.08-20.4,14.172c-.873.605-1.3,1.029-.064,1.772q10.277,6.185,20.491,12.469c1.1.678,1.319.421,1.309-.764C136.333,79.158,136.357,74.662,136.356,70.167Z"/></g></g></svg>