<svg xmlns="http://www.w3.org/2000/svg" viewBox="0 0 110.004 109.982"><defs><style>.cls-1{fill:#424242;}</style></defs><g id="Layer_2" data-name="Layer 2"><g id="Layer_1-2" data-name="Layer 1"><path class="cls-1" d="M55,109.978q-12.51,0-25.019,0A30.181,30.181,0,0,1,.005,79.695c.027-16.416-.044-32.833.03-49.249C.086,18.894,5.26,10.13,15.041,4.106A27.751,27.751,0,0,1,29.826.009Q55-.008,80.179.008a30.236,30.236,0,0,1,27.58,18.747A30.993,30.993,0,0,1,110,30.446c-.033,16.364.041,32.728-.033,49.091-.052,11.552-5.223,20.316-15.006,26.34a27.816,27.816,0,0,1-14.785,4.1Q67.591,110,55,109.978Zm0-8.43c8.128,0,16.256-.033,24.384.013a21.157,21.157,0,0,0,12.1-3.447c6.269-4.156,9.927-10.007,10-17.556.172-17.043.067-34.089.044-51.134a19.182,19.182,0,0,0-2.874-10.045c-4.381-7.2-10.8-10.927-19.276-10.938-16.256-.021-32.512.015-48.767-.019a21.286,21.286,0,0,0-12.1,3.446c-6.269,4.156-9.927,10.008-10,17.556-.172,17.043-.066,34.09-.044,51.134A19.111,19.111,0,0,0,11.3,90.536c4.362,7.2,10.76,10.971,19.237,11C38.694,101.573,46.848,101.548,55,101.548Z"/><path class="cls-1" d="M25.6,54.945A29.4,29.4,0,1,1,54.916,84.391,29.445,29.445,0,0,1,25.6,54.945Zm29.338,21A20.953,20.953,0,1,0,34.048,54.95,20.989,20.989,0,0,0,54.941,75.944Z"/><path class="cls-1" d="M85.458,18.758a5.718,5.718,0,0,1,5.792,5.8,5.823,5.823,0,1,1-5.792-5.8Z"/></g></g></svg>