<svg xmlns="http://www.w3.org/2000/svg" viewBox="0 0 125.108 88.853"><defs><style>.cls-1{fill:#424242;}</style></defs><g id="Layer_2" data-name="Layer 2"><g id="Layer_1-2" data-name="Layer 1"><path class="cls-1" d="M57.807,88.853c-5.378,0-10.763-.151-16.006-.3l-1.821-.051A152.053,152.053,0,0,1,18.7,86.916c-7-1.185-12.3-5-15.31-11.019A25,25,0,0,1,1.3,67.5l-.073-.59A188.213,188.213,0,0,1,.088,38.482,150.378,150.378,0,0,1,1.8,18.026C3.133,9.753,10.133,3.109,18.821,1.87,23.767,1.165,28.7.857,33.286.63,37.3.433,41.35.349,45.269.267,47.287.226,49.3.184,51.321.126,57.342-.043,63.3-.006,69.062.032c6.133.039,12.338.2,18.443.461L88.567.54A161.122,161.122,0,0,1,107.32,2.1,18.44,18.44,0,0,1,122.69,16.61,103,103,0,0,1,124.653,33l.086,1.567c.237,4.255.482,8.655.314,13.071a172.294,172.294,0,0,1-2,23.375,19.75,19.75,0,0,1-16.735,15.915c-4.963.745-10.021,1.036-14.372,1.251-4.436.218-8.923.312-13.263.4q-2.566.054-5.134.115c-1.867.047-3.734.051-5.6.054-1.977,0-4.021.007-6.007.067l-.05,0Q59.852,88.854,57.807,88.853ZM61.574,7c-3.327,0-6.691.028-10.056.124-2.034.057-4.068.1-6.1.142-3.871.08-7.874.163-11.783.356-4.423.219-9.158.513-13.823,1.178-4.8.684-10.152,4.457-11.1,10.344a143.7,143.7,0,0,0-1.62,19.513,181.584,181.584,0,0,0,1.085,27.38l.076.6a19.118,19.118,0,0,0,1.4,6.123c2.029,4.058,5.371,6.429,10.218,7.249a146.862,146.862,0,0,0,20.3,1.5l1.825.05c6.488.18,13.193.367,19.758.263,2.077-.063,4.164-.066,6.183-.07,1.812,0,3.624-.006,5.437-.052q2.582-.065,5.164-.115c4.29-.09,8.727-.183,13.063-.4,4.184-.206,9.035-.485,13.68-1.181s9.808-4.122,10.878-10.206a166.483,166.483,0,0,0,1.9-22.428c.155-4.089-.07-8.134-.308-12.416l-.087-1.577A96.592,96.592,0,0,0,115.851,18.1a11.425,11.425,0,0,0-9.646-9.1A156.421,156.421,0,0,0,88.263,7.533L87.2,7.487c-6.018-.263-12.136-.416-18.182-.455C66.567,7.017,64.08,7,61.574,7ZM51.739,65.536a3.99,3.99,0,0,1-2.18-.664,4.049,4.049,0,0,1-1.721-4.09v.008q-.011-6.541-.006-13.089V41.01q0-6.478.006-12.956a4.094,4.094,0,0,1,1.782-4.15,4.042,4.042,0,0,1,4.94.453q5.349,3.285,10.691,6.576,8.007,4.929,16.021,9.846a4,4,0,0,1,.009,7.252q-8.488,5.2-16.963,10.423l-9.847,6.058A4.415,4.415,0,0,1,51.739,65.536Zm3.1-32.795q0,4.134,0,8.268V47.7q0,4.184,0,8.368l5.815-3.577q6.573-4.046,13.149-8.085c-4.1-2.516-8.157-5.015-12.216-7.513Zm-.377-8.448,0,0Z"/></g></g></svg>